<svg width="284" height="201" viewBox="0 0 284 201" fill="none" xmlns="http://www.w3.org/2000/svg">
<circle cx="72.5" cy="3.5" r="3.5" fill="#00527D"/>
<circle cx="72.5" cy="18.5" r="3.5" fill="#00527D"/>
<circle cx="72.5" cy="33.5" r="3.5" fill="#00527D"/>
<circle cx="72.5" cy="48.5" r="3.5" fill="#00527D"/>
<circle cx="72.5" cy="63.5" r="3.5" fill="#00527D"/>
<circle cx="72.5" cy="78.5" r="3.5" fill="#00527D"/>
<circle cx="86.5" cy="3.5" r="3.5" fill="#00527D"/>
<circle cx="86.5" cy="18.5" r="3.5" fill="#00527D"/>
<circle cx="86.5" cy="33.5" r="3.5" fill="#00527D"/>
<circle cx="86.5" cy="48.5" r="3.5" fill="#00527D"/>
<circle cx="86.5" cy="63.5" r="3.5" fill="#00527D"/>
<circle cx="86.5" cy="78.5" r="3.5" fill="#00527D"/>
<circle cx="58.5" cy="3.5" r="3.5" fill="#00527D"/>
<circle cx="58.5" cy="18.5" r="3.5" fill="#00527D"/>
<circle cx="58.5" cy="33.5" r="3.5" fill="#00527D"/>
<circle cx="58.5" cy="48.5" r="3.5" fill="#00527D"/>
<circle cx="58.5" cy="63.5" r="3.5" fill="#00527D"/>
<circle cx="58.5" cy="78.5" r="3.5" fill="#00527D"/>
<circle cx="44.5" cy="3.5" r="3.5" fill="#00527D"/>
<circle cx="44.5" cy="18.5" r="3.5" fill="#00527D"/>
<circle cx="44.5" cy="33.5" r="3.5" fill="#00527D"/>
<circle cx="44.5" cy="48.5" r="3.5" fill="#00527D"/>
<circle cx="44.5" cy="63.5" r="3.5" fill="#00527D"/>
<circle cx="44.5" cy="78.5" r="3.5" fill="#00527D"/>
<circle cx="30.5" cy="3.5" r="3.5" fill="#00527D"/>
<circle cx="30.5" cy="18.5" r="3.5" fill="#00527D"/>
<circle cx="30.5" cy="33.5" r="3.5" fill="#00527D"/>
<circle cx="30.5" cy="48.5" r="3.5" fill="#00527D"/>
<circle cx="30.5" cy="63.5" r="3.5" fill="#00527D"/>
<circle cx="30.5" cy="78.5" r="3.5" fill="#00527D"/>
<circle cx="17.5" cy="3.5" r="3.5" fill="#00527D"/>
<circle cx="17.5" cy="18.5" r="3.5" fill="#00527D"/>
<circle cx="17.5" cy="33.5" r="3.5" fill="#00527D"/>
<circle cx="17.5" cy="48.5" r="3.5" fill="#00527D"/>
<circle cx="17.5" cy="63.5" r="3.5" fill="#00527D"/>
<circle cx="17.5" cy="78.5" r="3.5" fill="#00527D"/>
<circle cx="3.5" cy="3.5" r="3.5" fill="#00527D"/>
<circle cx="3.5" cy="18.5" r="3.5" fill="#00527D"/>
<circle cx="3.5" cy="33.5" r="3.5" fill="#00527D"/>
<circle cx="3.5" cy="48.5" r="3.5" fill="#00527D"/>
<circle cx="3.5" cy="63.5" r="3.5" fill="#00527D"/>
<circle cx="3.5" cy="78.5" r="3.5" fill="#00527D"/>
<circle cx="72.5" cy="93.5" r="3.5" fill="#00527D"/>
<circle cx="86.5" cy="93.5" r="3.5" fill="#00527D"/>
<circle cx="58.5" cy="93.5" r="3.5" fill="#00527D"/>
<circle cx="44.5" cy="93.5" r="3.5" fill="#00527D"/>
<circle cx="30.5" cy="93.5" r="3.5" fill="#00527D"/>
<circle cx="17.5" cy="93.5" r="3.5" fill="#00527D"/>
<circle cx="3.5" cy="93.5" r="3.5" fill="#00527D"/>
<circle cx="72.5" cy="3.5" r="3.5" fill="#00527D"/>
<circle cx="72.5" cy="18.5" r="3.5" fill="#00527D"/>
<circle cx="72.5" cy="33.5" r="3.5" fill="#00527D"/>
<circle cx="72.5" cy="48.5" r="3.5" fill="#00527D"/>
<circle cx="72.5" cy="63.5" r="3.5" fill="#00527D"/>
<circle cx="72.5" cy="78.5" r="3.5" fill="#00527D"/>
<circle cx="86.5" cy="3.5" r="3.5" fill="#00527D"/>
<circle cx="86.5" cy="18.5" r="3.5" fill="#00527D"/>
<circle cx="86.5" cy="33.5" r="3.5" fill="#00527D"/>
<circle cx="86.5" cy="48.5" r="3.5" fill="#00527D"/>
<circle cx="86.5" cy="63.5" r="3.5" fill="#00527D"/>
<circle cx="86.5" cy="78.5" r="3.5" fill="#00527D"/>
<circle cx="58.5" cy="3.5" r="3.5" fill="#00527D"/>
<circle cx="58.5" cy="18.5" r="3.5" fill="#00527D"/>
<circle cx="58.5" cy="33.5" r="3.5" fill="#00527D"/>
<circle cx="58.5" cy="48.5" r="3.5" fill="#00527D"/>
<circle cx="58.5" cy="63.5" r="3.5" fill="#00527D"/>
<circle cx="58.5" cy="78.5" r="3.5" fill="#00527D"/>
<circle cx="44.5" cy="3.5" r="3.5" fill="#00527D"/>
<circle cx="44.5" cy="18.5" r="3.5" fill="#00527D"/>
<circle cx="44.5" cy="33.5" r="3.5" fill="#00527D"/>
<circle cx="44.5" cy="48.5" r="3.5" fill="#00527D"/>
<circle cx="44.5" cy="63.5" r="3.5" fill="#00527D"/>
<circle cx="44.5" cy="78.5" r="3.5" fill="#00527D"/>
<circle cx="30.5" cy="3.5" r="3.5" fill="#00527D"/>
<circle cx="30.5" cy="18.5" r="3.5" fill="#00527D"/>
<circle cx="30.5" cy="33.5" r="3.5" fill="#00527D"/>
<circle cx="30.5" cy="48.5" r="3.5" fill="#00527D"/>
<circle cx="30.5" cy="63.5" r="3.5" fill="#00527D"/>
<circle cx="30.5" cy="78.5" r="3.5" fill="#00527D"/>
<circle cx="17.5" cy="3.5" r="3.5" fill="#00527D"/>
<circle cx="17.5" cy="18.5" r="3.5" fill="#00527D"/>
<circle cx="17.5" cy="33.5" r="3.5" fill="#00527D"/>
<circle cx="17.5" cy="48.5" r="3.5" fill="#00527D"/>
<circle cx="17.5" cy="63.5" r="3.5" fill="#00527D"/>
<circle cx="17.5" cy="78.5" r="3.5" fill="#00527D"/>
<circle cx="3.5" cy="3.5" r="3.5" fill="#00527D"/>
<circle cx="3.5" cy="18.5" r="3.5" fill="#00527D"/>
<circle cx="3.5" cy="33.5" r="3.5" fill="#00527D"/>
<circle cx="3.5" cy="48.5" r="3.5" fill="#00527D"/>
<circle cx="3.5" cy="63.5" r="3.5" fill="#00527D"/>
<circle cx="3.5" cy="78.5" r="3.5" fill="#00527D"/>
<circle cx="72.5" cy="93.5" r="3.5" fill="#00527D"/>
<circle cx="86.5" cy="93.5" r="3.5" fill="#00527D"/>
<circle cx="58.5" cy="93.5" r="3.5" fill="#00527D"/>
<circle cx="44.5" cy="93.5" r="3.5" fill="#00527D"/>
<circle cx="30.5" cy="93.5" r="3.5" fill="#00527D"/>
<circle cx="17.5" cy="93.5" r="3.5" fill="#00527D"/>
<circle cx="3.5" cy="93.5" r="3.5" fill="#00527D"/>
<circle cx="72.5" cy="106.5" r="3.5" fill="#00527D"/>
<circle cx="72.5" cy="121.5" r="3.5" fill="#00527D"/>
<circle cx="72.5" cy="136.5" r="3.5" fill="#00527D"/>
<circle cx="72.5" cy="151.5" r="3.5" fill="#00527D"/>
<circle cx="72.5" cy="166.5" r="3.5" fill="#00527D"/>
<circle cx="72.5" cy="181.5" r="3.5" fill="#00527D"/>
<circle cx="86.5" cy="106.5" r="3.5" fill="#00527D"/>
<circle cx="86.5" cy="121.5" r="3.5" fill="#00527D"/>
<circle cx="86.5" cy="136.5" r="3.5" fill="#00527D"/>
<circle cx="86.5" cy="151.5" r="3.5" fill="#00527D"/>
<circle cx="86.5" cy="166.5" r="3.5" fill="#00527D"/>
<circle cx="86.5" cy="181.5" r="3.5" fill="#00527D"/>
<circle cx="58.5" cy="106.5" r="3.5" fill="#00527D"/>
<circle cx="58.5" cy="121.5" r="3.5" fill="#00527D"/>
<circle cx="58.5" cy="136.5" r="3.5" fill="#00527D"/>
<circle cx="58.5" cy="151.5" r="3.5" fill="#00527D"/>
<circle cx="58.5" cy="166.5" r="3.5" fill="#00527D"/>
<circle cx="58.5" cy="181.5" r="3.5" fill="#00527D"/>
<circle cx="44.5" cy="106.5" r="3.5" fill="#00527D"/>
<circle cx="44.5" cy="121.5" r="3.5" fill="#00527D"/>
<circle cx="44.5" cy="136.5" r="3.5" fill="#00527D"/>
<circle cx="44.5" cy="151.5" r="3.5" fill="#00527D"/>
<circle cx="44.5" cy="166.5" r="3.5" fill="#00527D"/>
<circle cx="44.5" cy="181.5" r="3.5" fill="#00527D"/>
<circle cx="30.5" cy="106.5" r="3.5" fill="#00527D"/>
<circle cx="30.5" cy="121.5" r="3.5" fill="#00527D"/>
<circle cx="30.5" cy="136.5" r="3.5" fill="#00527D"/>
<circle cx="30.5" cy="151.5" r="3.5" fill="#00527D"/>
<circle cx="30.5" cy="166.5" r="3.5" fill="#00527D"/>
<circle cx="30.5" cy="181.5" r="3.5" fill="#00527D"/>
<circle cx="17.5" cy="106.5" r="3.5" fill="#00527D"/>
<circle cx="17.5" cy="121.5" r="3.5" fill="#00527D"/>
<circle cx="17.5" cy="136.5" r="3.5" fill="#00527D"/>
<circle cx="17.5" cy="151.5" r="3.5" fill="#00527D"/>
<circle cx="17.5" cy="166.5" r="3.5" fill="#00527D"/>
<circle cx="17.5" cy="181.5" r="3.5" fill="#00527D"/>
<circle cx="3.5" cy="106.5" r="3.5" fill="#00527D"/>
<circle cx="3.5" cy="121.5" r="3.5" fill="#00527D"/>
<circle cx="3.5" cy="136.5" r="3.5" fill="#00527D"/>
<circle cx="3.5" cy="151.5" r="3.5" fill="#00527D"/>
<circle cx="3.5" cy="166.5" r="3.5" fill="#00527D"/>
<circle cx="3.5" cy="181.5" r="3.5" fill="#00527D"/>
<circle cx="72.5" cy="196.5" r="3.5" fill="#00527D"/>
<circle cx="86.5" cy="196.5" r="3.5" fill="#00527D"/>
<circle cx="58.5" cy="196.5" r="3.5" fill="#00527D"/>
<circle cx="44.5" cy="196.5" r="3.5" fill="#00527D"/>
<circle cx="30.5" cy="196.5" r="3.5" fill="#00527D"/>
<circle cx="17.5" cy="196.5" r="3.5" fill="#00527D"/>
<circle cx="3.5" cy="196.5" r="3.5" fill="#00527D"/>
<circle cx="72.5" cy="106.5" r="3.5" fill="#00527D"/>
<circle cx="72.5" cy="121.5" r="3.5" fill="#00527D"/>
<circle cx="72.5" cy="136.5" r="3.5" fill="#00527D"/>
<circle cx="72.5" cy="151.5" r="3.5" fill="#00527D"/>
<circle cx="72.5" cy="166.5" r="3.5" fill="#00527D"/>
<circle cx="72.5" cy="181.5" r="3.5" fill="#00527D"/>
<circle cx="86.5" cy="106.5" r="3.5" fill="#00527D"/>
<circle cx="86.5" cy="121.5" r="3.5" fill="#00527D"/>
<circle cx="86.5" cy="136.5" r="3.5" fill="#00527D"/>
<circle cx="86.5" cy="151.5" r="3.5" fill="#00527D"/>
<circle cx="86.5" cy="166.5" r="3.5" fill="#00527D"/>
<circle cx="86.5" cy="181.5" r="3.5" fill="#00527D"/>
<circle cx="58.5" cy="106.5" r="3.5" fill="#00527D"/>
<circle cx="58.5" cy="121.5" r="3.5" fill="#00527D"/>
<circle cx="58.5" cy="136.5" r="3.5" fill="#00527D"/>
<circle cx="58.5" cy="151.5" r="3.5" fill="#00527D"/>
<circle cx="58.5" cy="166.5" r="3.5" fill="#00527D"/>
<circle cx="58.5" cy="181.5" r="3.5" fill="#00527D"/>
<circle cx="44.5" cy="106.5" r="3.5" fill="#00527D"/>
<circle cx="44.5" cy="121.5" r="3.5" fill="#00527D"/>
<circle cx="44.5" cy="136.5" r="3.5" fill="#00527D"/>
<circle cx="44.5" cy="151.5" r="3.5" fill="#00527D"/>
<circle cx="44.5" cy="166.5" r="3.5" fill="#00527D"/>
<circle cx="44.5" cy="181.5" r="3.5" fill="#00527D"/>
<circle cx="30.5" cy="106.5" r="3.5" fill="#00527D"/>
<circle cx="30.5" cy="121.5" r="3.5" fill="#00527D"/>
<circle cx="30.5" cy="136.5" r="3.5" fill="#00527D"/>
<circle cx="30.5" cy="151.5" r="3.5" fill="#00527D"/>
<circle cx="30.5" cy="166.5" r="3.5" fill="#00527D"/>
<circle cx="30.5" cy="181.5" r="3.5" fill="#00527D"/>
<circle cx="17.5" cy="106.5" r="3.5" fill="#00527D"/>
<circle cx="17.5" cy="121.5" r="3.5" fill="#00527D"/>
<circle cx="17.5" cy="136.5" r="3.5" fill="#00527D"/>
<circle cx="17.5" cy="151.5" r="3.5" fill="#00527D"/>
<circle cx="17.5" cy="166.5" r="3.5" fill="#00527D"/>
<circle cx="17.5" cy="181.5" r="3.5" fill="#00527D"/>
<circle cx="3.5" cy="106.5" r="3.5" fill="#00527D"/>
<circle cx="3.5" cy="121.5" r="3.5" fill="#00527D"/>
<circle cx="3.5" cy="136.5" r="3.5" fill="#00527D"/>
<circle cx="3.5" cy="151.5" r="3.5" fill="#00527D"/>
<circle cx="3.5" cy="166.5" r="3.5" fill="#00527D"/>
<circle cx="3.5" cy="181.5" r="3.5" fill="#00527D"/>
<circle cx="72.5" cy="196.5" r="3.5" fill="#00527D"/>
<circle cx="86.5" cy="196.5" r="3.5" fill="#00527D"/>
<circle cx="58.5" cy="196.5" r="3.5" fill="#00527D"/>
<circle cx="44.5" cy="196.5" r="3.5" fill="#00527D"/>
<circle cx="30.5" cy="196.5" r="3.5" fill="#00527D"/>
<circle cx="17.5" cy="196.5" r="3.5" fill="#00527D"/>
<circle cx="3.5" cy="196.5" r="3.5" fill="#00527D"/>
<circle cx="168.5" cy="106.5" r="3.5" fill="#00527D"/>
<circle cx="168.5" cy="121.5" r="3.5" fill="#00527D"/>
<circle cx="168.5" cy="136.5" r="3.5" fill="#00527D"/>
<circle cx="168.5" cy="151.5" r="3.5" fill="#00527D"/>
<circle cx="168.5" cy="166.5" r="3.5" fill="#00527D"/>
<circle cx="168.5" cy="181.5" r="3.5" fill="#00527D"/>
<circle cx="182.5" cy="106.5" r="3.5" fill="#00527D"/>
<circle cx="182.5" cy="121.5" r="3.5" fill="#00527D"/>
<circle cx="182.5" cy="136.5" r="3.5" fill="#00527D"/>
<circle cx="182.5" cy="151.5" r="3.5" fill="#00527D"/>
<circle cx="182.5" cy="166.5" r="3.5" fill="#00527D"/>
<circle cx="182.5" cy="181.5" r="3.5" fill="#00527D"/>
<circle cx="154.5" cy="106.5" r="3.5" fill="#00527D"/>
<circle cx="154.5" cy="121.5" r="3.5" fill="#00527D"/>
<circle cx="154.5" cy="136.5" r="3.5" fill="#00527D"/>
<circle cx="154.5" cy="151.5" r="3.5" fill="#00527D"/>
<circle cx="154.5" cy="166.5" r="3.5" fill="#00527D"/>
<circle cx="154.5" cy="181.5" r="3.5" fill="#00527D"/>
<circle cx="140.5" cy="106.5" r="3.5" fill="#00527D"/>
<circle cx="140.5" cy="121.5" r="3.5" fill="#00527D"/>
<circle cx="140.5" cy="136.5" r="3.5" fill="#00527D"/>
<circle cx="140.5" cy="151.5" r="3.5" fill="#00527D"/>
<circle cx="140.5" cy="166.5" r="3.5" fill="#00527D"/>
<circle cx="140.5" cy="181.5" r="3.5" fill="#00527D"/>
<circle cx="126.5" cy="106.5" r="3.5" fill="#00527D"/>
<circle cx="126.5" cy="121.5" r="3.5" fill="#00527D"/>
<circle cx="126.5" cy="136.5" r="3.5" fill="#00527D"/>
<circle cx="126.5" cy="151.5" r="3.5" fill="#00527D"/>
<circle cx="126.5" cy="166.5" r="3.5" fill="#00527D"/>
<circle cx="126.5" cy="181.5" r="3.5" fill="#00527D"/>
<circle cx="113.5" cy="106.5" r="3.5" fill="#00527D"/>
<circle cx="113.5" cy="121.5" r="3.5" fill="#00527D"/>
<circle cx="113.5" cy="136.5" r="3.5" fill="#00527D"/>
<circle cx="113.5" cy="151.5" r="3.5" fill="#00527D"/>
<circle cx="113.5" cy="166.5" r="3.5" fill="#00527D"/>
<circle cx="113.5" cy="181.5" r="3.5" fill="#00527D"/>
<circle cx="99.5" cy="106.5" r="3.5" fill="#00527D"/>
<circle cx="99.5" cy="121.5" r="3.5" fill="#00527D"/>
<circle cx="99.5" cy="136.5" r="3.5" fill="#00527D"/>
<circle cx="99.5" cy="151.5" r="3.5" fill="#00527D"/>
<circle cx="99.5" cy="166.5" r="3.5" fill="#00527D"/>
<circle cx="99.5" cy="181.5" r="3.5" fill="#00527D"/>
<circle cx="168.5" cy="196.5" r="3.5" fill="#00527D"/>
<circle cx="182.5" cy="196.5" r="3.5" fill="#00527D"/>
<circle cx="154.5" cy="196.5" r="3.5" fill="#00527D"/>
<circle cx="140.5" cy="196.5" r="3.5" fill="#00527D"/>
<circle cx="126.5" cy="196.5" r="3.5" fill="#00527D"/>
<circle cx="113.5" cy="196.5" r="3.5" fill="#00527D"/>
<circle cx="99.5" cy="196.5" r="3.5" fill="#00527D"/>
<circle cx="168.5" cy="106.5" r="3.5" fill="#00527D"/>
<circle cx="168.5" cy="121.5" r="3.5" fill="#00527D"/>
<circle cx="168.5" cy="136.5" r="3.5" fill="#00527D"/>
<circle cx="168.5" cy="151.5" r="3.5" fill="#00527D"/>
<circle cx="168.5" cy="166.5" r="3.5" fill="#00527D"/>
<circle cx="168.5" cy="181.5" r="3.5" fill="#00527D"/>
<circle cx="182.5" cy="106.5" r="3.5" fill="#00527D"/>
<circle cx="182.5" cy="121.5" r="3.5" fill="#00527D"/>
<circle cx="182.5" cy="136.5" r="3.5" fill="#00527D"/>
<circle cx="182.5" cy="151.5" r="3.5" fill="#00527D"/>
<circle cx="182.5" cy="166.5" r="3.5" fill="#00527D"/>
<circle cx="182.5" cy="181.5" r="3.5" fill="#00527D"/>
<circle cx="154.5" cy="106.5" r="3.5" fill="#00527D"/>
<circle cx="154.5" cy="121.5" r="3.5" fill="#00527D"/>
<circle cx="154.5" cy="136.5" r="3.5" fill="#00527D"/>
<circle cx="154.5" cy="151.5" r="3.5" fill="#00527D"/>
<circle cx="154.5" cy="166.5" r="3.5" fill="#00527D"/>
<circle cx="154.5" cy="181.5" r="3.5" fill="#00527D"/>
<circle cx="140.5" cy="106.5" r="3.5" fill="#00527D"/>
<circle cx="140.5" cy="121.5" r="3.5" fill="#00527D"/>
<circle cx="140.5" cy="136.5" r="3.5" fill="#00527D"/>
<circle cx="140.5" cy="151.5" r="3.5" fill="#00527D"/>
<circle cx="140.5" cy="166.5" r="3.5" fill="#00527D"/>
<circle cx="140.5" cy="181.5" r="3.5" fill="#00527D"/>
<circle cx="126.5" cy="106.5" r="3.5" fill="#00527D"/>
<circle cx="126.5" cy="121.5" r="3.5" fill="#00527D"/>
<circle cx="126.5" cy="136.5" r="3.5" fill="#00527D"/>
<circle cx="126.5" cy="151.5" r="3.5" fill="#00527D"/>
<circle cx="126.5" cy="166.5" r="3.5" fill="#00527D"/>
<circle cx="126.5" cy="181.5" r="3.5" fill="#00527D"/>
<circle cx="113.5" cy="106.5" r="3.5" fill="#00527D"/>
<circle cx="113.5" cy="121.5" r="3.5" fill="#00527D"/>
<circle cx="113.5" cy="136.5" r="3.5" fill="#00527D"/>
<circle cx="113.5" cy="151.5" r="3.5" fill="#00527D"/>
<circle cx="113.5" cy="166.5" r="3.5" fill="#00527D"/>
<circle cx="113.5" cy="181.5" r="3.5" fill="#00527D"/>
<circle cx="99.5" cy="106.5" r="3.5" fill="#00527D"/>
<circle cx="99.5" cy="121.5" r="3.5" fill="#00527D"/>
<circle cx="99.5" cy="136.5" r="3.5" fill="#00527D"/>
<circle cx="99.5" cy="151.5" r="3.5" fill="#00527D"/>
<circle cx="99.5" cy="166.5" r="3.5" fill="#00527D"/>
<circle cx="99.5" cy="181.5" r="3.5" fill="#00527D"/>
<circle cx="168.5" cy="196.5" r="3.5" fill="#00527D"/>
<circle cx="182.5" cy="196.5" r="3.5" fill="#00527D"/>
<circle cx="154.5" cy="196.5" r="3.5" fill="#00527D"/>
<circle cx="140.5" cy="196.5" r="3.5" fill="#00527D"/>
<circle cx="126.5" cy="196.5" r="3.5" fill="#00527D"/>
<circle cx="113.5" cy="196.5" r="3.5" fill="#00527D"/>
<circle cx="99.5" cy="196.5" r="3.5" fill="#00527D"/>
<circle cx="168.5" cy="3.5" r="3.5" fill="#00527D"/>
<circle cx="168.5" cy="18.5" r="3.5" fill="#00527D"/>
<circle cx="168.5" cy="33.5" r="3.5" fill="#00527D"/>
<circle cx="168.5" cy="48.5" r="3.5" fill="#00527D"/>
<circle cx="168.5" cy="63.5" r="3.5" fill="#00527D"/>
<circle cx="168.5" cy="78.5" r="3.5" fill="#00527D"/>
<circle cx="182.5" cy="3.5" r="3.5" fill="#00527D"/>
<circle cx="182.5" cy="18.5" r="3.5" fill="#00527D"/>
<circle cx="182.5" cy="33.5" r="3.5" fill="#00527D"/>
<circle cx="182.5" cy="48.5" r="3.5" fill="#00527D"/>
<circle cx="182.5" cy="63.5" r="3.5" fill="#00527D"/>
<circle cx="182.5" cy="78.5" r="3.5" fill="#00527D"/>
<circle cx="154.5" cy="3.5" r="3.5" fill="#00527D"/>
<circle cx="154.5" cy="18.5" r="3.5" fill="#00527D"/>
<circle cx="154.5" cy="33.5" r="3.5" fill="#00527D"/>
<circle cx="154.5" cy="48.5" r="3.5" fill="#00527D"/>
<circle cx="154.5" cy="63.5" r="3.5" fill="#00527D"/>
<circle cx="154.5" cy="78.5" r="3.5" fill="#00527D"/>
<circle cx="140.5" cy="3.5" r="3.5" fill="#00527D"/>
<circle cx="140.5" cy="18.5" r="3.5" fill="#00527D"/>
<circle cx="140.5" cy="33.5" r="3.5" fill="#00527D"/>
<circle cx="140.5" cy="48.5" r="3.5" fill="#00527D"/>
<circle cx="140.5" cy="63.5" r="3.5" fill="#00527D"/>
<circle cx="140.5" cy="78.5" r="3.5" fill="#00527D"/>
<circle cx="126.5" cy="3.5" r="3.5" fill="#00527D"/>
<circle cx="126.5" cy="18.5" r="3.5" fill="#00527D"/>
<circle cx="126.5" cy="33.5" r="3.5" fill="#00527D"/>
<circle cx="126.5" cy="48.5" r="3.5" fill="#00527D"/>
<circle cx="126.5" cy="63.5" r="3.5" fill="#00527D"/>
<circle cx="126.5" cy="78.5" r="3.5" fill="#00527D"/>
<circle cx="113.5" cy="3.5" r="3.5" fill="#00527D"/>
<circle cx="113.5" cy="18.5" r="3.5" fill="#00527D"/>
<circle cx="113.5" cy="33.5" r="3.5" fill="#00527D"/>
<circle cx="113.5" cy="48.5" r="3.5" fill="#00527D"/>
<circle cx="113.5" cy="63.5" r="3.5" fill="#00527D"/>
<circle cx="113.5" cy="78.5" r="3.5" fill="#00527D"/>
<circle cx="99.5" cy="3.5" r="3.5" fill="#00527D"/>
<circle cx="99.5" cy="18.5" r="3.5" fill="#00527D"/>
<circle cx="99.5" cy="33.5" r="3.5" fill="#00527D"/>
<circle cx="99.5" cy="48.5" r="3.5" fill="#00527D"/>
<circle cx="99.5" cy="63.5" r="3.5" fill="#00527D"/>
<circle cx="99.5" cy="78.5" r="3.5" fill="#00527D"/>
<circle cx="168.5" cy="93.5" r="3.5" fill="#00527D"/>
<circle cx="182.5" cy="93.5" r="3.5" fill="#00527D"/>
<circle cx="154.5" cy="93.5" r="3.5" fill="#00527D"/>
<circle cx="140.5" cy="93.5" r="3.5" fill="#00527D"/>
<circle cx="126.5" cy="93.5" r="3.5" fill="#00527D"/>
<circle cx="113.5" cy="93.5" r="3.5" fill="#00527D"/>
<circle cx="99.5" cy="93.5" r="3.5" fill="#00527D"/>
<circle cx="168.5" cy="3.5" r="3.5" fill="#00527D"/>
<circle cx="168.5" cy="18.5" r="3.5" fill="#00527D"/>
<circle cx="168.5" cy="33.5" r="3.5" fill="#00527D"/>
<circle cx="168.5" cy="48.5" r="3.5" fill="#00527D"/>
<circle cx="168.5" cy="63.5" r="3.5" fill="#00527D"/>
<circle cx="168.5" cy="78.5" r="3.5" fill="#00527D"/>
<circle cx="182.5" cy="3.5" r="3.5" fill="#00527D"/>
<circle cx="182.5" cy="18.5" r="3.5" fill="#00527D"/>
<circle cx="182.5" cy="33.5" r="3.5" fill="#00527D"/>
<circle cx="182.5" cy="48.5" r="3.5" fill="#00527D"/>
<circle cx="182.5" cy="63.5" r="3.5" fill="#00527D"/>
<circle cx="182.5" cy="78.5" r="3.5" fill="#00527D"/>
<circle cx="154.5" cy="3.5" r="3.5" fill="#00527D"/>
<circle cx="154.5" cy="18.5" r="3.5" fill="#00527D"/>
<circle cx="154.5" cy="33.5" r="3.5" fill="#00527D"/>
<circle cx="154.5" cy="48.5" r="3.5" fill="#00527D"/>
<circle cx="154.5" cy="63.5" r="3.5" fill="#00527D"/>
<circle cx="154.5" cy="78.5" r="3.5" fill="#00527D"/>
<circle cx="140.5" cy="3.5" r="3.5" fill="#00527D"/>
<circle cx="140.5" cy="18.5" r="3.5" fill="#00527D"/>
<circle cx="140.5" cy="33.5" r="3.5" fill="#00527D"/>
<circle cx="140.5" cy="48.5" r="3.5" fill="#00527D"/>
<circle cx="140.5" cy="63.5" r="3.5" fill="#00527D"/>
<circle cx="140.5" cy="78.5" r="3.5" fill="#00527D"/>
<circle cx="126.5" cy="3.5" r="3.5" fill="#00527D"/>
<circle cx="126.5" cy="18.5" r="3.5" fill="#00527D"/>
<circle cx="126.5" cy="33.5" r="3.5" fill="#00527D"/>
<circle cx="126.5" cy="48.5" r="3.5" fill="#00527D"/>
<circle cx="126.5" cy="63.5" r="3.5" fill="#00527D"/>
<circle cx="126.5" cy="78.5" r="3.5" fill="#00527D"/>
<circle cx="113.5" cy="3.5" r="3.5" fill="#00527D"/>
<circle cx="113.5" cy="18.5" r="3.5" fill="#00527D"/>
<circle cx="113.5" cy="33.5" r="3.5" fill="#00527D"/>
<circle cx="113.5" cy="48.5" r="3.5" fill="#00527D"/>
<circle cx="113.5" cy="63.5" r="3.5" fill="#00527D"/>
<circle cx="113.5" cy="78.5" r="3.5" fill="#00527D"/>
<circle cx="99.5" cy="3.5" r="3.5" fill="#00527D"/>
<circle cx="99.5" cy="18.5" r="3.5" fill="#00527D"/>
<circle cx="99.5" cy="33.5" r="3.5" fill="#00527D"/>
<circle cx="99.5" cy="48.5" r="3.5" fill="#00527D"/>
<circle cx="99.5" cy="63.5" r="3.5" fill="#00527D"/>
<circle cx="99.5" cy="78.5" r="3.5" fill="#00527D"/>
<circle cx="168.5" cy="93.5" r="3.5" fill="#00527D"/>
<circle cx="182.5" cy="93.5" r="3.5" fill="#00527D"/>
<circle cx="154.5" cy="93.5" r="3.5" fill="#00527D"/>
<circle cx="140.5" cy="93.5" r="3.5" fill="#00527D"/>
<circle cx="126.5" cy="93.5" r="3.5" fill="#00527D"/>
<circle cx="113.5" cy="93.5" r="3.5" fill="#00527D"/>
<circle cx="99.5" cy="93.5" r="3.5" fill="#00527D"/>
<ellipse cx="265.89" cy="3.5" rx="3.51882" ry="3.5" fill="#00527D"/>
<ellipse cx="265.89" cy="18.5" rx="3.51882" ry="3.5" fill="#00527D"/>
<ellipse cx="265.89" cy="33.5" rx="3.51882" ry="3.5" fill="#00527D"/>
<ellipse cx="265.89" cy="48.5" rx="3.51882" ry="3.5" fill="#00527D"/>
<ellipse cx="265.89" cy="63.5" rx="3.51882" ry="3.5" fill="#00527D"/>
<ellipse cx="265.89" cy="78.5" rx="3.51882" ry="3.5" fill="#00527D"/>
<ellipse cx="279.965" cy="3.5" rx="3.51882" ry="3.5" fill="#00527D"/>
<ellipse cx="279.965" cy="18.5" rx="3.51882" ry="3.5" fill="#00527D"/>
<ellipse cx="279.965" cy="33.5" rx="3.51882" ry="3.5" fill="#00527D"/>
<ellipse cx="279.965" cy="48.5" rx="3.51882" ry="3.5" fill="#00527D"/>
<ellipse cx="279.965" cy="63.5" rx="3.51882" ry="3.5" fill="#00527D"/>
<ellipse cx="279.965" cy="78.5" rx="3.51882" ry="3.5" fill="#00527D"/>
<ellipse cx="251.815" cy="3.5" rx="3.51882" ry="3.5" fill="#00527D"/>
<ellipse cx="251.815" cy="18.5" rx="3.51882" ry="3.5" fill="#00527D"/>
<ellipse cx="251.815" cy="33.5" rx="3.51882" ry="3.5" fill="#00527D"/>
<ellipse cx="251.815" cy="48.5" rx="3.51882" ry="3.5" fill="#00527D"/>
<ellipse cx="251.815" cy="63.5" rx="3.51882" ry="3.5" fill="#00527D"/>
<ellipse cx="251.815" cy="78.5" rx="3.51882" ry="3.5" fill="#00527D"/>
<ellipse cx="237.739" cy="3.5" rx="3.51882" ry="3.5" fill="#00527D"/>
<ellipse cx="237.739" cy="18.5" rx="3.51882" ry="3.5" fill="#00527D"/>
<ellipse cx="237.739" cy="33.5" rx="3.51882" ry="3.5" fill="#00527D"/>
<ellipse cx="237.739" cy="48.5" rx="3.51882" ry="3.5" fill="#00527D"/>
<ellipse cx="237.739" cy="63.5" rx="3.51882" ry="3.5" fill="#00527D"/>
<ellipse cx="237.739" cy="78.5" rx="3.51882" ry="3.5" fill="#00527D"/>
<ellipse cx="223.664" cy="3.5" rx="3.51882" ry="3.5" fill="#00527D"/>
<ellipse cx="223.664" cy="18.5" rx="3.51882" ry="3.5" fill="#00527D"/>
<ellipse cx="223.664" cy="33.5" rx="3.51882" ry="3.5" fill="#00527D"/>
<ellipse cx="223.664" cy="48.5" rx="3.51882" ry="3.5" fill="#00527D"/>
<ellipse cx="223.664" cy="63.5" rx="3.51882" ry="3.5" fill="#00527D"/>
<ellipse cx="223.664" cy="78.5" rx="3.51882" ry="3.5" fill="#00527D"/>
<ellipse cx="210.594" cy="3.5" rx="3.51882" ry="3.5" fill="#00527D"/>
<ellipse cx="210.594" cy="18.5" rx="3.51882" ry="3.5" fill="#00527D"/>
<ellipse cx="210.594" cy="33.5" rx="3.51882" ry="3.5" fill="#00527D"/>
<ellipse cx="210.594" cy="48.5" rx="3.51882" ry="3.5" fill="#00527D"/>
<ellipse cx="210.594" cy="63.5" rx="3.51882" ry="3.5" fill="#00527D"/>
<ellipse cx="210.594" cy="78.5" rx="3.51882" ry="3.5" fill="#00527D"/>
<ellipse cx="196.519" cy="3.5" rx="3.51882" ry="3.5" fill="#00527D"/>
<ellipse cx="196.519" cy="18.5" rx="3.51882" ry="3.5" fill="#00527D"/>
<ellipse cx="196.519" cy="33.5" rx="3.51882" ry="3.5" fill="#00527D"/>
<ellipse cx="196.519" cy="48.5" rx="3.51882" ry="3.5" fill="#00527D"/>
<ellipse cx="196.519" cy="63.5" rx="3.51882" ry="3.5" fill="#00527D"/>
<ellipse cx="196.519" cy="78.5" rx="3.51882" ry="3.5" fill="#00527D"/>
<ellipse cx="265.89" cy="93.5" rx="3.51882" ry="3.5" fill="#00527D"/>
<ellipse cx="279.965" cy="93.5" rx="3.51882" ry="3.5" fill="#00527D"/>
<ellipse cx="251.815" cy="93.5" rx="3.51882" ry="3.5" fill="#00527D"/>
<ellipse cx="237.739" cy="93.5" rx="3.51882" ry="3.5" fill="#00527D"/>
<ellipse cx="223.664" cy="93.5" rx="3.51882" ry="3.5" fill="#00527D"/>
<ellipse cx="210.594" cy="93.5" rx="3.51882" ry="3.5" fill="#00527D"/>
<ellipse cx="196.519" cy="93.5" rx="3.51882" ry="3.5" fill="#00527D"/>
<ellipse cx="265.89" cy="3.5" rx="3.51882" ry="3.5" fill="#00527D"/>
<ellipse cx="265.89" cy="18.5" rx="3.51882" ry="3.5" fill="#00527D"/>
<ellipse cx="265.89" cy="33.5" rx="3.51882" ry="3.5" fill="#00527D"/>
<ellipse cx="265.89" cy="48.5" rx="3.51882" ry="3.5" fill="#00527D"/>
<ellipse cx="265.89" cy="63.5" rx="3.51882" ry="3.5" fill="#00527D"/>
<ellipse cx="265.89" cy="78.5" rx="3.51882" ry="3.5" fill="#00527D"/>
<ellipse cx="279.965" cy="3.5" rx="3.51882" ry="3.5" fill="#00527D"/>
<ellipse cx="279.965" cy="18.5" rx="3.51882" ry="3.5" fill="#00527D"/>
<ellipse cx="279.965" cy="33.5" rx="3.51882" ry="3.5" fill="#00527D"/>
<ellipse cx="279.965" cy="48.5" rx="3.51882" ry="3.5" fill="#00527D"/>
<ellipse cx="279.965" cy="63.5" rx="3.51882" ry="3.5" fill="#00527D"/>
<ellipse cx="279.965" cy="78.5" rx="3.51882" ry="3.5" fill="#00527D"/>
<ellipse cx="251.815" cy="3.5" rx="3.51882" ry="3.5" fill="#00527D"/>
<ellipse cx="251.815" cy="18.5" rx="3.51882" ry="3.5" fill="#00527D"/>
<ellipse cx="251.815" cy="33.5" rx="3.51882" ry="3.5" fill="#00527D"/>
<ellipse cx="251.815" cy="48.5" rx="3.51882" ry="3.5" fill="#00527D"/>
<ellipse cx="251.815" cy="63.5" rx="3.51882" ry="3.5" fill="#00527D"/>
<ellipse cx="251.815" cy="78.5" rx="3.51882" ry="3.5" fill="#00527D"/>
<ellipse cx="237.739" cy="3.5" rx="3.51882" ry="3.5" fill="#00527D"/>
<ellipse cx="237.739" cy="18.5" rx="3.51882" ry="3.5" fill="#00527D"/>
<ellipse cx="237.739" cy="33.5" rx="3.51882" ry="3.5" fill="#00527D"/>
<ellipse cx="237.739" cy="48.5" rx="3.51882" ry="3.5" fill="#00527D"/>
<ellipse cx="237.739" cy="63.5" rx="3.51882" ry="3.5" fill="#00527D"/>
<ellipse cx="237.739" cy="78.5" rx="3.51882" ry="3.5" fill="#00527D"/>
<ellipse cx="223.664" cy="3.5" rx="3.51882" ry="3.5" fill="#00527D"/>
<ellipse cx="223.664" cy="18.5" rx="3.51882" ry="3.5" fill="#00527D"/>
<ellipse cx="223.664" cy="33.5" rx="3.51882" ry="3.5" fill="#00527D"/>
<ellipse cx="223.664" cy="48.5" rx="3.51882" ry="3.5" fill="#00527D"/>
<ellipse cx="223.664" cy="63.5" rx="3.51882" ry="3.5" fill="#00527D"/>
<ellipse cx="223.664" cy="78.5" rx="3.51882" ry="3.5" fill="#00527D"/>
<ellipse cx="210.594" cy="3.5" rx="3.51882" ry="3.5" fill="#00527D"/>
<ellipse cx="210.594" cy="18.5" rx="3.51882" ry="3.5" fill="#00527D"/>
<ellipse cx="210.594" cy="33.5" rx="3.51882" ry="3.5" fill="#00527D"/>
<ellipse cx="210.594" cy="48.5" rx="3.51882" ry="3.5" fill="#00527D"/>
<ellipse cx="210.594" cy="63.5" rx="3.51882" ry="3.5" fill="#00527D"/>
<ellipse cx="210.594" cy="78.5" rx="3.51882" ry="3.5" fill="#00527D"/>
<ellipse cx="196.519" cy="3.5" rx="3.51882" ry="3.5" fill="#00527D"/>
<ellipse cx="196.519" cy="18.5" rx="3.51882" ry="3.5" fill="#00527D"/>
<ellipse cx="196.519" cy="33.5" rx="3.51882" ry="3.5" fill="#00527D"/>
<ellipse cx="196.519" cy="48.5" rx="3.51882" ry="3.5" fill="#00527D"/>
<ellipse cx="196.519" cy="63.5" rx="3.51882" ry="3.5" fill="#00527D"/>
<ellipse cx="196.519" cy="78.5" rx="3.51882" ry="3.5" fill="#00527D"/>
<ellipse cx="265.89" cy="93.5" rx="3.51882" ry="3.5" fill="#00527D"/>
<ellipse cx="279.965" cy="93.5" rx="3.51882" ry="3.5" fill="#00527D"/>
<ellipse cx="251.815" cy="93.5" rx="3.51882" ry="3.5" fill="#00527D"/>
<ellipse cx="237.739" cy="93.5" rx="3.51882" ry="3.5" fill="#00527D"/>
<ellipse cx="223.664" cy="93.5" rx="3.51882" ry="3.5" fill="#00527D"/>
<ellipse cx="210.594" cy="93.5" rx="3.51882" ry="3.5" fill="#00527D"/>
<ellipse cx="196.519" cy="93.5" rx="3.51882" ry="3.5" fill="#00527D"/>
<ellipse cx="265.89" cy="107.5" rx="3.51882" ry="3.5" fill="#00527D"/>
<ellipse cx="265.89" cy="122.5" rx="3.51882" ry="3.5" fill="#00527D"/>
<ellipse cx="265.89" cy="137.5" rx="3.51882" ry="3.5" fill="#00527D"/>
<ellipse cx="265.89" cy="152.5" rx="3.51882" ry="3.5" fill="#00527D"/>
<ellipse cx="265.89" cy="167.5" rx="3.51882" ry="3.5" fill="#00527D"/>
<ellipse cx="265.89" cy="182.5" rx="3.51882" ry="3.5" fill="#00527D"/>
<ellipse cx="279.965" cy="107.5" rx="3.51882" ry="3.5" fill="#00527D"/>
<ellipse cx="279.965" cy="122.5" rx="3.51882" ry="3.5" fill="#00527D"/>
<ellipse cx="279.965" cy="137.5" rx="3.51882" ry="3.5" fill="#00527D"/>
<ellipse cx="279.965" cy="152.5" rx="3.51882" ry="3.5" fill="#00527D"/>
<ellipse cx="279.965" cy="167.5" rx="3.51882" ry="3.5" fill="#00527D"/>
<ellipse cx="279.965" cy="182.5" rx="3.51882" ry="3.5" fill="#00527D"/>
<ellipse cx="251.815" cy="107.5" rx="3.51882" ry="3.5" fill="#00527D"/>
<ellipse cx="251.815" cy="122.5" rx="3.51882" ry="3.5" fill="#00527D"/>
<ellipse cx="251.815" cy="137.5" rx="3.51882" ry="3.5" fill="#00527D"/>
<ellipse cx="251.815" cy="152.5" rx="3.51882" ry="3.5" fill="#00527D"/>
<ellipse cx="251.815" cy="167.5" rx="3.51882" ry="3.5" fill="#00527D"/>
<ellipse cx="251.815" cy="182.5" rx="3.51882" ry="3.5" fill="#00527D"/>
<ellipse cx="237.739" cy="107.5" rx="3.51882" ry="3.5" fill="#00527D"/>
<ellipse cx="237.739" cy="122.5" rx="3.51882" ry="3.5" fill="#00527D"/>
<ellipse cx="237.739" cy="137.5" rx="3.51882" ry="3.5" fill="#00527D"/>
<ellipse cx="237.739" cy="152.5" rx="3.51882" ry="3.5" fill="#00527D"/>
<ellipse cx="237.739" cy="167.5" rx="3.51882" ry="3.5" fill="#00527D"/>
<ellipse cx="237.739" cy="182.5" rx="3.51882" ry="3.5" fill="#00527D"/>
<ellipse cx="223.664" cy="107.5" rx="3.51882" ry="3.5" fill="#00527D"/>
<ellipse cx="223.664" cy="122.5" rx="3.51882" ry="3.5" fill="#00527D"/>
<ellipse cx="223.664" cy="137.5" rx="3.51882" ry="3.5" fill="#00527D"/>
<ellipse cx="223.664" cy="152.5" rx="3.51882" ry="3.5" fill="#00527D"/>
<ellipse cx="223.664" cy="167.5" rx="3.51882" ry="3.5" fill="#00527D"/>
<ellipse cx="223.664" cy="182.5" rx="3.51882" ry="3.5" fill="#00527D"/>
<ellipse cx="210.594" cy="107.5" rx="3.51882" ry="3.5" fill="#00527D"/>
<ellipse cx="210.594" cy="122.5" rx="3.51882" ry="3.5" fill="#00527D"/>
<ellipse cx="210.594" cy="137.5" rx="3.51882" ry="3.5" fill="#00527D"/>
<ellipse cx="210.594" cy="152.5" rx="3.51882" ry="3.5" fill="#00527D"/>
<ellipse cx="210.594" cy="167.5" rx="3.51882" ry="3.5" fill="#00527D"/>
<ellipse cx="210.594" cy="182.5" rx="3.51882" ry="3.5" fill="#00527D"/>
<ellipse cx="196.519" cy="107.5" rx="3.51882" ry="3.5" fill="#00527D"/>
<ellipse cx="196.519" cy="122.5" rx="3.51882" ry="3.5" fill="#00527D"/>
<ellipse cx="196.519" cy="137.5" rx="3.51882" ry="3.5" fill="#00527D"/>
<ellipse cx="196.519" cy="152.5" rx="3.51882" ry="3.5" fill="#00527D"/>
<ellipse cx="196.519" cy="167.5" rx="3.51882" ry="3.5" fill="#00527D"/>
<ellipse cx="196.519" cy="182.5" rx="3.51882" ry="3.5" fill="#00527D"/>
<ellipse cx="265.89" cy="197.5" rx="3.51882" ry="3.5" fill="#00527D"/>
<ellipse cx="279.965" cy="197.5" rx="3.51882" ry="3.5" fill="#00527D"/>
<ellipse cx="251.815" cy="197.5" rx="3.51882" ry="3.5" fill="#00527D"/>
<ellipse cx="237.739" cy="197.5" rx="3.51882" ry="3.5" fill="#00527D"/>
<ellipse cx="223.664" cy="197.5" rx="3.51882" ry="3.5" fill="#00527D"/>
<ellipse cx="210.594" cy="197.5" rx="3.51882" ry="3.5" fill="#00527D"/>
<ellipse cx="196.519" cy="197.5" rx="3.51882" ry="3.5" fill="#00527D"/>
<ellipse cx="265.89" cy="107.5" rx="3.51882" ry="3.5" fill="#00527D"/>
<ellipse cx="265.89" cy="122.5" rx="3.51882" ry="3.5" fill="#00527D"/>
<ellipse cx="265.89" cy="137.5" rx="3.51882" ry="3.5" fill="#00527D"/>
<ellipse cx="265.89" cy="152.5" rx="3.51882" ry="3.5" fill="#00527D"/>
<ellipse cx="265.89" cy="167.5" rx="3.51882" ry="3.5" fill="#00527D"/>
<ellipse cx="265.89" cy="182.5" rx="3.51882" ry="3.5" fill="#00527D"/>
<ellipse cx="279.965" cy="107.5" rx="3.51882" ry="3.5" fill="#00527D"/>
<ellipse cx="279.965" cy="122.5" rx="3.51882" ry="3.5" fill="#00527D"/>
<ellipse cx="279.965" cy="137.5" rx="3.51882" ry="3.5" fill="#00527D"/>
<ellipse cx="279.965" cy="152.5" rx="3.51882" ry="3.5" fill="#00527D"/>
<ellipse cx="279.965" cy="167.5" rx="3.51882" ry="3.5" fill="#00527D"/>
<ellipse cx="279.965" cy="182.5" rx="3.51882" ry="3.5" fill="#00527D"/>
<ellipse cx="251.815" cy="107.5" rx="3.51882" ry="3.5" fill="#00527D"/>
<ellipse cx="251.815" cy="122.5" rx="3.51882" ry="3.5" fill="#00527D"/>
<ellipse cx="251.815" cy="137.5" rx="3.51882" ry="3.5" fill="#00527D"/>
<ellipse cx="251.815" cy="152.5" rx="3.51882" ry="3.5" fill="#00527D"/>
<ellipse cx="251.815" cy="167.5" rx="3.51882" ry="3.5" fill="#00527D"/>
<ellipse cx="251.815" cy="182.5" rx="3.51882" ry="3.5" fill="#00527D"/>
<ellipse cx="237.739" cy="107.5" rx="3.51882" ry="3.5" fill="#00527D"/>
<ellipse cx="237.739" cy="122.5" rx="3.51882" ry="3.5" fill="#00527D"/>
<ellipse cx="237.739" cy="137.5" rx="3.51882" ry="3.5" fill="#00527D"/>
<ellipse cx="237.739" cy="152.5" rx="3.51882" ry="3.5" fill="#00527D"/>
<ellipse cx="237.739" cy="167.5" rx="3.51882" ry="3.5" fill="#00527D"/>
<ellipse cx="237.739" cy="182.5" rx="3.51882" ry="3.5" fill="#00527D"/>
<ellipse cx="223.664" cy="107.5" rx="3.51882" ry="3.5" fill="#00527D"/>
<ellipse cx="223.664" cy="122.5" rx="3.51882" ry="3.5" fill="#00527D"/>
<ellipse cx="223.664" cy="137.5" rx="3.51882" ry="3.5" fill="#00527D"/>
<ellipse cx="223.664" cy="152.5" rx="3.51882" ry="3.5" fill="#00527D"/>
<ellipse cx="223.664" cy="167.5" rx="3.51882" ry="3.5" fill="#00527D"/>
<ellipse cx="223.664" cy="182.5" rx="3.51882" ry="3.5" fill="#00527D"/>
<ellipse cx="210.594" cy="107.5" rx="3.51882" ry="3.5" fill="#00527D"/>
<ellipse cx="210.594" cy="122.5" rx="3.51882" ry="3.5" fill="#00527D"/>
<ellipse cx="210.594" cy="137.5" rx="3.51882" ry="3.5" fill="#00527D"/>
<ellipse cx="210.594" cy="152.5" rx="3.51882" ry="3.5" fill="#00527D"/>
<ellipse cx="210.594" cy="167.5" rx="3.51882" ry="3.5" fill="#00527D"/>
<ellipse cx="210.594" cy="182.5" rx="3.51882" ry="3.5" fill="#00527D"/>
<ellipse cx="196.519" cy="107.5" rx="3.51882" ry="3.5" fill="#00527D"/>
<ellipse cx="196.519" cy="122.5" rx="3.51882" ry="3.5" fill="#00527D"/>
<ellipse cx="196.519" cy="137.5" rx="3.51882" ry="3.5" fill="#00527D"/>
<ellipse cx="196.519" cy="152.5" rx="3.51882" ry="3.5" fill="#00527D"/>
<ellipse cx="196.519" cy="167.5" rx="3.51882" ry="3.5" fill="#00527D"/>
<ellipse cx="196.519" cy="182.5" rx="3.51882" ry="3.5" fill="#00527D"/>
<ellipse cx="265.89" cy="197.5" rx="3.51882" ry="3.5" fill="#00527D"/>
<ellipse cx="279.965" cy="197.5" rx="3.51882" ry="3.5" fill="#00527D"/>
<ellipse cx="251.815" cy="197.5" rx="3.51882" ry="3.5" fill="#00527D"/>
<ellipse cx="237.739" cy="197.5" rx="3.51882" ry="3.5" fill="#00527D"/>
<ellipse cx="223.664" cy="197.5" rx="3.51882" ry="3.5" fill="#00527D"/>
<ellipse cx="210.594" cy="197.5" rx="3.51882" ry="3.5" fill="#00527D"/>
<ellipse cx="196.519" cy="197.5" rx="3.51882" ry="3.5" fill="#00527D"/>
</svg>
