<svg width="90" height="85" viewBox="0 0 90 85" fill="none" xmlns="http://www.w3.org/2000/svg">
<path d="M30.001 4.10936e-07C30.3757 -0.00023665 30.7429 0.102097 31.0612 0.295419C31.3794 0.488741 31.636 0.765332 31.8018 1.09388L39.9843 17.3111L58.2839 19.9124C58.6542 19.9654 59.0019 20.1186 59.2879 20.3547C59.5738 20.5909 59.7865 20.9005 59.902 21.2486C60.0175 21.5967 60.0312 21.9695 59.9415 22.3248C59.8518 22.6802 59.6623 23.0039 59.3944 23.2594L46.1547 35.881L49.28 53.705C49.3423 54.0657 49.3005 54.4363 49.1593 54.7751C49.018 55.1138 48.7828 55.4073 48.4803 55.6224C48.1777 55.8375 47.8198 55.9658 47.4467 55.9928C47.0737 56.0197 46.7003 55.9443 46.3687 55.775L30.001 47.3589L13.6333 55.775C13.302 55.9451 12.9287 56.0213 12.5555 55.9949C12.1823 55.9684 11.8241 55.8405 11.5213 55.6255C11.2185 55.4105 10.9832 55.1169 10.842 54.778C10.7008 54.4392 10.6592 54.0684 10.7221 53.7076L13.8474 35.881L0.607668 23.2594C0.33893 23.0038 0.148771 22.6797 0.0587378 22.3238C-0.0312951 21.9679 -0.0176016 21.5945 0.0982664 21.2458C0.214134 20.8971 0.427544 20.5871 0.714313 20.351C1.00108 20.1149 1.34974 19.962 1.72079 19.9097L20.0177 17.3111L28.2029 1.09388C28.3685 0.765731 28.6247 0.489405 28.9424 0.29611C29.2602 0.102815 29.6268 0.000251594 30.001 4.10936e-07ZM30.001 6.39844L23.151 19.9726C23.0069 20.2579 22.7939 20.5046 22.5306 20.6915C22.2672 20.8785 21.9613 20.9999 21.6392 21.0455L6.32044 23.2228L17.4062 33.79C17.6389 34.0124 17.8129 34.2867 17.9131 34.5894C18.0133 34.8921 18.0368 35.2141 17.9815 35.5277L15.3645 50.4495L29.0672 43.4047C29.3552 43.2566 29.6757 43.1793 30.001 43.1793C30.3264 43.1793 30.6469 43.2566 30.9349 43.4047L44.6348 50.4495L42.0206 35.5277C41.9653 35.2141 41.9887 34.8921 42.089 34.5894C42.1892 34.2867 42.3632 34.0124 42.5959 33.79L53.6816 23.2228L38.3628 21.0481C38.0407 21.0026 37.7349 20.8811 37.4715 20.6942C37.2081 20.5072 36.9952 20.2605 36.851 19.9752L30.001 6.39844Z" fill="#03354F" fill-opacity="0.87"/>
<path d="M70.0007 47C70.2504 46.9998 70.4953 47.0693 70.7074 47.2005C70.9196 47.3316 71.0906 47.5193 71.2012 47.7423L76.6562 58.7468L88.856 60.512C89.1028 60.5479 89.3346 60.6519 89.5252 60.8121C89.7159 60.9724 89.8577 61.1825 89.9347 61.4187C90.0117 61.6549 90.0208 61.9079 89.961 62.149C89.9012 62.3901 89.7749 62.6098 89.5963 62.7832L80.7698 71.3478L82.8533 83.4427C82.8949 83.6875 82.867 83.9389 82.7728 84.1688C82.6786 84.3987 82.5219 84.5978 82.3202 84.7438C82.1185 84.8897 81.8798 84.9768 81.6311 84.9951C81.3824 85.0134 81.1336 84.9622 80.9125 84.8473L70.0007 79.1364L59.0889 84.8473C58.868 84.9628 58.6191 85.0145 58.3703 84.9965C58.1215 84.9786 57.8827 84.8918 57.6809 84.7459C57.479 84.6 57.3221 84.4008 57.228 84.1708C57.1338 83.9409 57.1062 83.6893 57.1481 83.4445L59.2316 71.3478L50.4051 62.7832C50.226 62.6097 50.0992 62.3898 50.0392 62.1483C49.9791 61.9068 49.9883 61.6534 50.0655 61.4168C50.1428 61.1802 50.285 60.9698 50.4762 60.8096C50.6674 60.6494 50.8998 60.5456 51.1472 60.5102L63.3451 58.7468L68.8019 47.7423C68.9124 47.5196 69.0831 47.3321 69.295 47.2009C69.5068 47.0698 69.7512 47.0002 70.0007 47ZM70.0007 51.3418L65.434 60.5528C65.3379 60.7464 65.196 60.9139 65.0204 61.0407C64.8448 61.1675 64.6409 61.25 64.4262 61.2809L54.2136 62.7583L61.6041 69.929C61.7593 70.0798 61.8752 70.266 61.942 70.4714C62.0089 70.6768 62.0245 70.8953 61.9876 71.1081L60.243 81.2336L69.3781 76.4532C69.5701 76.3527 69.7838 76.3002 70.0007 76.3002C70.2176 76.3002 70.4312 76.3527 70.6232 76.4532L79.7565 81.2336L78.0137 71.1081C77.9769 70.8953 77.9925 70.6768 78.0593 70.4714C78.1261 70.266 78.2421 70.0798 78.3973 69.929L85.7877 62.7583L75.5752 61.2827C75.3605 61.2517 75.1566 61.1693 74.981 61.0425C74.8054 60.9156 74.6634 60.7482 74.5673 60.5546L70.0007 51.3418Z" fill="#03354F" fill-opacity="0.87"/>
</svg>
